/* XPM */
static char *dialog_error_png[] = {
/* columns rows colors chars-per-pixel */
"22 22 148 2 ",
"   c None",
".  c #6A0000",
"X  c #6F0000",
"o  c #710000",
"O  c #780000",
"+  c #8D0000",
"@  c #8F0000",
"#  c #960000",
"$  c #9D0000",
"%  c #9E0000",
"&  c #9F0000",
"*  c #A00000",
"=  c #A30000",
"-  c #A40000",
";  c #AF0909",
":  c #AF0A09",
">  c #B20F0F",
",  c #B31010",
"<  c #B31111",
"1  c #B31212",
"2  c #B61717",
"3  c #BC1717",
"4  c #BC1817",
"5  c #BF1E1E",
"6  c #D91010",
"7  c #DA1010",
"8  c #DA1111",
"9  c #DB1111",
"0  c #DB1211",
"q  c #DA1112",
"w  c #DB1212",
"e  c #DC1312",
"r  c #DC1213",
"t  c #DC1313",
"y  c #DD1413",
"u  c #DC1314",
"i  c #D91514",
"p  c #DA1515",
"a  c #D91717",
"s  c #DA1716",
"d  c #DD1414",
"f  c #DD1415",
"g  c #DE1414",
"h  c #DE1514",
"j  c #DE1515",
"k  c #DE1615",
"l  c #DF1516",
"z  c #DE1616",
"x  c #DF1616",
"c  c #DF1716",
"v  c #DF1717",
"b  c #DE1B1B",
"n  c #DF1C1C",
"m  c #E01717",
"M  c #E11818",
"N  c #E01918",
"B  c #E11918",
"V  c #E21919",
"C  c #E21A19",
"Z  c #E2191A",
"A  c #E21A1A",
"S  c #E31B1A",
"D  c #E31A1B",
"F  c #E31B1B",
"G  c #E41B1B",
"H  c #E41C1C",
"J  c #E51D1C",
"K  c #E41C1D",
"L  c #E51E1D",
"P  c #E51E1E",
"I  c #E61E1E",
"U  c #E61F1F",
"Y  c #E71F1F",
"T  c #E6201F",
"R  c #E7201F",
"E  c #C02020",
"W  c #C42828",
"Q  c #C52A2A",
"!  c #C82F2F",
"~  c #D12E2E",
"^  c #DD2828",
"/  c #DD2929",
"(  c #D13030",
")  c #D33131",
"_  c #D43736",
"`  c #D63A39",
"'  c #DB3939",
"]  c #DC3F3E",
"[  c #E22223",
"{  c #E72020",
"}  c #E72120",
"|  c #E72121",
" . c #E42525",
".. c #E52727",
"X. c #E82121",
"o. c #E82222",
"O. c #E92222",
"+. c #E92223",
"@. c #EA2223",
"#. c #EA2323",
"$. c #EB2324",
"%. c #EA2424",
"&. c #EB2424",
"*. c #EB2524",
"=. c #EC2425",
"-. c #EC2525",
";. c #EC2626",
":. c #ED2626",
">. c #ED2726",
",. c #EE2727",
"<. c #E82827",
"1. c #EE2728",
"2. c #E72828",
"3. c #E92929",
"4. c #ED2828",
"5. c #EE2E2E",
"6. c #E33535",
"7. c #E53736",
"8. c #EE3030",
"9. c #EF3535",
"0. c #DB4242",
"q. c #DD4040",
"w. c #DF4443",
"e. c #DD4445",
"r. c #DF4B4B",
"t. c #DE4C4C",
"y. c #DE4E4E",
"u. c #E24545",
"i. c #E04546",
"p. c #E94242",
"a. c #EB4444",
"s. c #E34848",
"d. c #E14F4F",
"f. c #F14F4E",
"g. c #F14F4F",
"h. c #E55353",
"j. c #E15455",
"k. c #E25656",
"l. c #E75656",
"z. c #E75E5E",
"x. c #EC6464",
"c. c #ED6665",
"v. c #ED6868",
"b. c #EE6A6A",
"n. c #EF6D6D",
"m. c #F16C6C",
"M. c #F26F6E",
"N. c white",
/* pixels */
"                                            ",
"                                            ",
"                - - - - -                   ",
"            - ! k.b.M.c.y.Q -               ",
"        - 2 z.f.8.,.,.*.3.a.d.1 -           ",
"        2 n.9.1.,.,.$.X.X.R 2.l.1           ",
"      - z.9.4.,.,.X.X.{ J J J  .e.-         ",
"      ! f.,.,.*.X.X.{ J J J A A 7.E         ",
"    - k.5.,.*.X.X.{ J J J A A A n ` -       ",
"    - b.,.*.N.N.N.N.N.N.N.N.N.x x u.-       ",
"    - M.*.X.N.N.N.N.N.N.N.N.N.x x s.-       ",
"    - c.X.X.N.N.N.N.N.N.N.N.N.u w q.-       ",
"    - y.<.R J J A A A m x x t w a ) -       ",
"      Q p.J J G A A x x x t w w ^ 4         ",
"      - r. .A A A x x x t w w a ) -         ",
"        1 h.[ A x x x t w w a ' ;           ",
"        # > 0.6.b y w w a ^ ) ; @           ",
"          O * 5 _ w.u.] ~ 3 $ o             ",
"              X @ $ * $ @ .                 ",
"                                            ",
"                                            ",
"                                            "
};
