/* XPM */
static char *dialog_information_png[] = {
/* columns rows colors chars-per-pixel */
"22 22 172 2 ",
"   c None",
".  c gray27",
"X  c #545451",
"o  c #565655",
"O  c #4E586D",
"+  c #666A65",
"@  c #6A6B64",
"#  c #616472",
"$  c #616573",
"%  c #616574",
"&  c #616675",
"*  c #636774",
"=  c #626775",
"-  c #636775",
";  c #616676",
":  c #616677",
">  c #616777",
",  c #646774",
"<  c #636876",
"1  c #626877",
"2  c #616778",
"3  c #626778",
"4  c #636878",
"5  c #696E7C",
"6  c #6D717F",
"7  c #A7A75F",
"8  c #858560",
"9  c #898966",
"0  c #C1C17E",
"q  c #717481",
"w  c #727680",
"e  c #757A89",
"r  c #787C8A",
"t  c #7A7F8D",
"y  c #7E818F",
"u  c #719AC8",
"i  c #789ECF",
"p  c #7FA4CE",
"a  c #81858E",
"s  c #949890",
"d  c #9AA08B",
"f  c #A1A585",
"g  c #B7B985",
"h  c #B9BB85",
"j  c #B4B588",
"k  c #A2A495",
"l  c #BCBC98",
"z  c #949CAC",
"x  c #959EB2",
"c  c #9FA7B9",
"v  c #D7D8A0",
"b  c #E2E4AD",
"n  c #E3E5B2",
"m  c #E7E9BE",
"M  c #80A4CD",
"N  c #80A5CE",
"B  c #84A7D2",
"V  c #85A9D0",
"C  c #89ABD1",
"Z  c #89ABD2",
"A  c #8BADD1",
"S  c #8DAED2",
"D  c #8DAED3",
"F  c #87A9D9",
"G  c #89AAD8",
"H  c #92B2D4",
"J  c #92B2D5",
"K  c #93B2D6",
"L  c #94B4D5",
"P  c #96B4D7",
"I  c #98B5D7",
"U  c #95B3D8",
"Y  c #9BB8D8",
"T  c #9DB9D8",
"R  c #9DB8D9",
"E  c #9DB9D9",
"W  c #AEB2C0",
"Q  c #A7B6CB",
"!  c #B0BACD",
"~  c #A5BFDC",
"^  c #B2BBD0",
"/  c #A4BCE4",
"(  c #BFC7CA",
")  c #A9C2DD",
"_  c #ACC4DF",
"`  c #BCC4D2",
"'  c #BCC7D4",
"]  c #B6C3DC",
"[  c #ABC2E0",
"{  c #B1C7E3",
"}  c #BAC6E0",
"|  c #B1C8E0",
" . c #B6CBE3",
".. c #B9C9E1",
"X. c #B8CCE5",
"o. c #BACEE4",
"O. c #BBCEE5",
"+. c #B5C9E8",
"@. c #B6C9E9",
"#. c #C1C6CD",
"$. c #D6DAC2",
"%. c #C0C9D7",
"&. c #C7CFD9",
"*. c #C5CCDC",
"=. c #CDD1DD",
"-. c #DADCD6",
";. c #D7D9DB",
":. c #F1F3CC",
">. c #F2F4D1",
",. c #F7F9D0",
"<. c #F7FAD2",
"1. c #C3CEE4",
"2. c #C2CFE6",
"3. c #C0D2E6",
"4. c #C1D3E6",
"5. c #C0D2E7",
"6. c #C0D3E7",
"7. c #C2D2E6",
"8. c #C2D3E7",
"9. c #C5D5E8",
"0. c #C5D6E8",
"q. c #C6D6EB",
"w. c #CAD5EA",
"e. c #CAD5EB",
"r. c #CDD6E9",
"t. c #CAD7EE",
"y. c #C8D8E9",
"u. c #C9D8EA",
"i. c #C9D9EA",
"p. c #CBDAEA",
"a. c #CCDBEB",
"s. c #CDDBEB",
"d. c #CDDCEB",
"f. c #CEDBED",
"g. c #CFDAEE",
"h. c #CDDCEC",
"j. c #CFDDEC",
"k. c #DADEE2",
"l. c #D3DBEC",
"z. c #D0DDEC",
"x. c #D0DDED",
"c. c #D0DEEC",
"v. c #D1DFED",
"b. c #D2DFEE",
"n. c #D6DEEF",
"m. c #D4E0EE",
"M. c #D5E1EE",
"N. c #D6E0F3",
"B. c #DDE3F2",
"V. c #DAE3F4",
"C. c #DEE5F6",
"Z. c #DEE8F2",
"A. c #E2E5E9",
"S. c #E3E6ED",
"D. c #E3EBF4",
"F. c #E6EDF5",
"G. c #E9EBF1",
"H. c #E8ECFA",
"J. c #EBEEFB",
"K. c #EAF0F7",
"L. c #EDF2F8",
"P. c #EDF1FC",
"I. c #F2F5FA",
"U. c #F4F7FA",
"Y. c #F0F2FE",
"T. c #F6F8FB",
"R. c #F9FBFC",
"E. c #FCFDFD",
"W. c #FCFDFE",
"Q. c #FDFDFE",
"!. c #FDFEFE",
"~. c #FEFEFE",
/* pixels */
"                2 % $ % 2                   ",
"            % c 2.g.N.w.] x 4               ",
"          e } @.G U J A C { r.t             ",
"        % w./ B  .8.8.8._ N J n.5           ",
"      $ ^ @.i 9.y.s.h.s.y.J N [ ! $         ",
"      2 2.F L y.s.h.v.v.d.T S J l.<         ",
"      % t.u C y.d.v.m.m.8.) Y S J.$         ",
"      2 ..p V | y.v.v.9.o. .~ T B.<         ",
"      % Q L S D.Z.8.8.v.L.I.T o.*.<         ",
"        r 8.I F.R.Q.Q.Q.Q.T.o.J.y           ",
"        % z g.y.U.      Q.L.C.W %           ",
"          % ` 9.K.      Q.P.=.%             ",
"            6 V.' &.      Y.q               ",
"            < %.( s $.k -.S.,               ",
"              q #.k.G.A.;.a                 ",
"              O d g g h f +                 ",
"              9 7 >.<.n j 9                 ",
"                9 0 b v 9                   ",
"              9 0 :.<.m l 9                 ",
"                8 o @ X 9                   ",
"                  o . o                     ",
"                                            "
};
