/* XPM */
static char *emblem_unreadable_png[] = {
/* columns rows colors chars-per-pixel */
"22 22 144 2 ",
"   c None",
".  c gray42",
"X  c #7C7C7C",
"o  c #D60C0C",
"O  c #D70D0D",
"+  c #D80E0E",
"@  c #D90F0F",
"#  c #DA1010",
"$  c #DA1111",
"%  c #DB1212",
"&  c #DC1313",
"*  c #DD1313",
"=  c #DB1717",
"-  c #DD1414",
";  c #DE1515",
":  c #DF1616",
">  c #DC1918",
",  c #DC1A1A",
"<  c #DD1A1A",
"1  c #DC1C1C",
"2  c #DE1C1C",
"3  c #E01717",
"4  c #E01818",
"5  c #E11919",
"6  c #E21919",
"7  c #E01B1B",
"8  c #E21A1A",
"9  c #E31B1B",
"0  c #E31C1C",
"q  c #E41C1C",
"w  c #E51D1D",
"e  c #E51E1E",
"r  c #E61E1E",
"t  c #E61F1F",
"y  c #E71F1F",
"u  c #DA2E2E",
"i  c #DA2F2F",
"p  c #DB2F2F",
"a  c #DB3030",
"s  c #DD3232",
"d  c #DF3838",
"f  c #DD3B3B",
"g  c #DF3E3E",
"h  c #E02323",
"j  c #E72020",
"k  c #E82121",
"l  c #E92222",
"z  c #EA2323",
"x  c #EA2424",
"c  c #EB2525",
"v  c #EC2525",
"b  c #EC2626",
"n  c #ED2727",
"m  c #EE2727",
"M  c #EA2827",
"N  c #E02F2F",
"B  c #EB2828",
"V  c #E92A2A",
"C  c #EE2828",
"Z  c #EC2A2A",
"A  c #EB2D2D",
"S  c #EC2C2C",
"D  c #ED2D2D",
"F  c #EC2E2E",
"G  c #E13030",
"H  c #E23131",
"J  c #E33333",
"K  c #E13737",
"L  c #E43535",
"P  c #E63636",
"I  c #E23838",
"U  c #E43939",
"Y  c #E43B3B",
"T  c #E03F3F",
"R  c #E63D3D",
"E  c #E73D3D",
"W  c #E83838",
"Q  c #E93A3A",
"!  c #EB3D3D",
"~  c #E83F3F",
"^  c #ED3F3F",
"/  c #E04747",
"(  c #E94141",
")  c #EB4242",
"_  c #ED4545",
"`  c #E24848",
"'  c #E44B4B",
"]  c #E14C4B",
"[  c #E34E4D",
"{  c #E64D4D",
"}  c #E74E4E",
"|  c #ED4848",
" . c #EC4C4C",
".. c #EC4E4E",
"X. c #E5504F",
"o. c #E65150",
"O. c #E75352",
"+. c #E95050",
"@. c #E95151",
"#. c #EB5353",
"$. c #E85554",
"%. c #EA5655",
"&. c #EB5958",
"*. c #979797",
"=. c #9A9A9A",
"-. c #9C9C9C",
";. c #9D9D9D",
":. c #9E9E9E",
">. c #9F9F9F",
",. c #A0A0A0",
"<. c #AFAFAF",
"1. c gray69",
"2. c #B1B1B1",
"3. c #F0ADAD",
"4. c #F2B1B1",
"5. c #F0B3B3",
"6. c #F2B5B5",
"7. c #ECD4D2",
"8. c #EDD5D3",
"9. c #ECD7D5",
"0. c #EEDAD8",
"q. c #ECDCDB",
"w. c #EDDEDC",
"e. c #EEE1DF",
"r. c #EEE3E1",
"t. c #EDE4E2",
"y. c #EEE4E2",
"u. c #EEE5E3",
"i. c #EEE6E4",
"p. c #EEE7E5",
"a. c #EDE8E6",
"s. c #EEE8E6",
"d. c #EEE9E6",
"f. c #EEE8E7",
"g. c gray92",
"h. c #ECECEC",
"j. c gray93",
"k. c #EEEEEC",
"l. c #EFEFEF",
"z. c gray94",
"x. c #F1F1F1",
"c. c #FDFDFD",
"v. c #FEFEFE",
"b. c white",
/* pixels */
"                                            ",
"      >.>.>.>.>.>.>.=.>.>.>.>.>.>.>.>.      ",
"    <.g.v.v.v.v.v.v.v.v.v.v.v.v.v.v.k.2.    ",
"  >.g.6..._ _ _ _ _ _ _ _ _ _ _ _ ..5.k.>.  ",
"  >.v...C n C C C C C C C C C C C C | v.>.  ",
"  >.v._ C C C C C C C C n C C C C C ^ v.>.  ",
"  >.v._ C n n D C n n n n D D n n n ^ v.>.  ",
"  >.v._ n n B 8.e.&.z z #.r.0.A x n ~ v.>.  ",
"  >.v.( x z B r.k.i.%.#.y.k.e.M z z ~ v.>.  ",
"  >.v.( z j j #.y.k.f.i.k.i.%.j j z W v.>.  ",
"  >.v.~ w w w w } i.k.k.f.o.w w w w W v.>.  ",
"  >.v.E w w 0 9 } i.k.k.f.o.9 9 0 w L v.>.  ",
"  >.v.E 9 9 9 ' y.k.f.i.k.i.X.9 9 9 L v.>.  ",
"  >.v.Y 9 9 9 q.k.i.[ ` y.k.y.h 3 9 H v.>.  ",
"  =.v.Y 3 - 1 8.y.] & & / w.9.< - - H v.>.  ",
"  >.v.I - - & < < % % % % = 1 % & - H v.>.  ",
"  >.v.K & % % % + + + + + + + % % % N v.>.  ",
"  >.v.T % % + + o o o o o o o + + % f v.>.  ",
"  ,.k.5.g s a a u u u u u u u a a f 3.z.>.  ",
"    <.k.v.v.v.v.v.v.v.v.v.v.v.v.v.v.z.2.X   ",
"      *.>.>.>.>.>.>.>.>.>.>.>.>.>.>.=..     ",
"                                            "
};
