/* XPM */
static char *emblem_important_png[] = {
/* columns rows colors chars-per-pixel */
"22 22 164 2 ",
"   c None",
".  c #8B3E00",
"X  c #944200",
"o  c #B65100",
"O  c #B65200",
"+  c #C15700",
"@  c #C05A02",
"#  c #C05B02",
"$  c #C75900",
"%  c #C75A00",
"&  c #C95900",
"*  c #C85A00",
"=  c #C95A00",
"-  c #CC5B00",
";  c #CD5B00",
":  c #C85C01",
">  c #CB5C00",
",  c #CC5C00",
"<  c #CD5C00",
"1  c #CC5D01",
"2  c #CE5C00",
"3  c #CE5D01",
"4  c #CD5E03",
"5  c #CE6003",
"6  c #CF6003",
"7  c #C86004",
"8  c #CA6004",
"9  c #CA6106",
"0  c #CB6206",
"q  c #CF6104",
"w  c #CF6105",
"e  c #CE6406",
"r  c #D1680A",
"t  c #D47017",
"y  c #D57219",
"u  c #D1711C",
"i  c #D2711D",
"p  c #F57900",
"a  c #F57901",
"s  c #F57A01",
"d  c #F57A02",
"f  c #F57B04",
"g  c #F57C05",
"h  c #F57D05",
"j  c #F57C06",
"k  c #F57D06",
"l  c #F57D07",
"z  c #F57D08",
"x  c #F57E08",
"c  c #F57F0A",
"v  c #D57520",
"b  c #D77721",
"n  c #D87822",
"m  c #DB7E22",
"M  c #D87925",
"N  c #D87C24",
"B  c #DC7F27",
"V  c #D67D2C",
"C  c #D97F2B",
"Z  c #F5800C",
"A  c #F5800D",
"S  c #F6800D",
"D  c #F68313",
"F  c #F58415",
"G  c #F68516",
"H  c #F68517",
"J  c #F68518",
"K  c #F6871B",
"L  c #F78A18",
"P  c #F78B1B",
"I  c #D9802F",
"U  c #DE8430",
"Y  c #DC8433",
"T  c #DE8634",
"R  c #DE8636",
"E  c #DF8836",
"W  c #F68D26",
"Q  c #F78E29",
"!  c #F78F2A",
"~  c #F69625",
"^  c #F79626",
"/  c #F7912D",
"(  c #F8962E",
")  c #E08838",
"_  c #EE9834",
"`  c #EF9836",
"'  c #EB9638",
"]  c #EE9639",
"[  c #F79332",
"{  c #F79536",
"}  c #F79537",
"|  c #F79538",
" . c #F79638",
".. c #F79639",
"X. c #F79739",
"o. c #F7973B",
"O. c #F49939",
"+. c #F79939",
"@. c #F7983C",
"#. c #F7993E",
"$. c #F59F3C",
"%. c #F8A03B",
"&. c #E79A45",
"*. c #EF9F4E",
"=. c #F79A40",
"-. c #F79B41",
";. c #F79B42",
":. c #F79B43",
">. c #F79C44",
",. c #F89C42",
"<. c #F89E46",
"1. c #F89E47",
"2. c #F8A341",
"3. c #F4A448",
"4. c #F8A24F",
"5. c #E8A053",
"6. c #ECA452",
"7. c #EDA85B",
"8. c #F9A655",
"9. c #F8AA55",
"0. c #F8A856",
"q. c #F6A958",
"w. c #F7AE59",
"e. c #F7AF5D",
"r. c #F8AD5C",
"t. c #EFA660",
"y. c #ECA860",
"u. c #F3AA61",
"i. c #F0AA64",
"p. c #F8AC60",
"a. c #F9AD64",
"s. c #F8AE66",
"d. c #F9AF66",
"f. c #F8AF67",
"g. c #F3AF69",
"h. c #F9AF68",
"j. c #F6B46D",
"k. c #F9B36E",
"l. c #F2B372",
"z. c #F0B473",
"x. c #F6B575",
"c. c #F8B570",
"v. c #F9B572",
"b. c #F8B774",
"n. c #F6B678",
"m. c #F6B978",
"M. c #F9BE7F",
"N. c #F8BC80",
"B. c #F9BC81",
"V. c #FABD80",
"C. c #F8BE84",
"Z. c #F9C083",
"A. c #F9C187",
"S. c #FAC48F",
"D. c #FBC591",
"F. c #FBCC9E",
"G. c #FCDAB9",
"H. c #FCDBBB",
"J. c #FCDCBD",
"K. c #FEECDB",
"L. c #FEF8F2",
"P. c #FFFCF9",
"I. c #FFFEFD",
"U. c #FFFFFF",
/* pixels */
"                9 w 1 1 w r @               ",
"            1 T i.n.N.N.x.t.) w             ",
"        : v l.s.:...} } ..:.p.g.M 9         ",
"      % T C.>.} } } } } } } } :.b.E 9       ",
"      v A.@.} } } ,.h.s.4.} } } ..v.n       ",
"    1 z.:.} } } } s.U.U.F.} } } } :.u.6     ",
"    Y s.} } } } } 8.U.U.S.} } } } } 9.Y @   ",
"  % y.:.} } } } } <.U.U.N.} } } } } @.*.e   ",
"  1 m...} } } } } ..U.U.v.} } } } } ..q.6   ",
"  1 Z.} } } } } } } L.U.<.z S G [ } } r.1   ",
"  1 M.} } } } } Q D K.U.W p p p p G Q 9.1   ",
"  : j...} / J g p p D.G.S p p p p p p +.6   ",
"  = 5.G g p p p p p p J p p p p p p z ] 9   ",
"    I +.p p p p p p G.P.D p p p p p L B     ",
"    - 7.S p p p p p k.J.f p p p p g _ 1     ",
"      i e.g p p p p p p p p p p p ~ y       ",
"      - V w.S p p p p p p p p g ~ m %       ",
"        = i 6.( z p p p p g L _ t +         ",
"            = C &.3.2.%.$.' N =             ",
"              X o % - 1 % o .               ",
"                                            ",
"                                            "
};
