/* XPM */
static char *media_playback_pause_png[] = {
/* columns rows colors chars-per-pixel */
"22 22 51 1 ",
"  c None",
". c #525450",
"X c #545652",
"o c #555753",
"O c #565854",
"+ c #575955",
"@ c #585A56",
"# c #5B5D59",
"$ c #5E615C",
"% c #656662",
"& c #656663",
"* c #656764",
"= c #666865",
"- c #6D6F6B",
"; c #D8DBD4",
": c #DBDED9",
"> c #DEE0DB",
", c #DFE1DC",
"< c #E1E3DF",
"1 c #E2E4DF",
"2 c #E2E4E0",
"3 c #E3E5E0",
"4 c #E3E5E1",
"5 c #E4E5E2",
"6 c #E4E6E2",
"7 c #E5E6E2",
"8 c #E5E6E3",
"9 c #E5E7E3",
"0 c #E6E7E3",
"q c #E7E9E6",
"w c #E8E9E6",
"e c #E8EAE7",
"r c #EAEBE8",
"t c #EBECE9",
"y c #EEEEED",
"u c #EFF0EE",
"i c #F8F9F8",
"p c #F9F9F8",
"a c #FAFAF9",
"s c #FAFBFA",
"d c #FBFBFB",
"f c #FBFCFB",
"g c #FCFCFB",
"h c gray99",
"j c #FCFDFC",
"k c #FDFDFC",
"l c #FDFDFD",
"z c #FDFEFD",
"x c #FEFEFE",
"c c #FFFFFE",
"v c white",
/* pixels */
"                      ",
"                      ",
"                      ",
"                      ",
"                      ",
"   .XXXX@   XXXXX$    ",
"   Xhhhh-   @hhhh&    ",
"   Xh<1i-   @h11i&    ",
"   Xh<1i-   @h11i&    ",
"   Xh22i-   @h22i&    ",
"   Xh99i-   @h99f&    ",
"   Xhwqi-   @h:;h&    ",
"   Xh9,i-   @h,>h&    ",
"   Xh92i-   @h92h&    ",
"   Xhtwg-   @hrqh&    ",
"   Xhuth-   @hyth*    ",
"   Xhhhh-   @hhhh*    ",
"   +++++#   +++++=    ",
"                      ",
"                      ",
"                      ",
"                      "
};
