/* XPM */
static char *media_playback_stop_png[] = {
/* columns rows colors chars-per-pixel */
"22 22 54 1 ",
"  c None",
". c #535550",
"X c #545552",
"o c #555753",
"O c #575855",
"+ c #575A55",
"@ c #D5D8D1",
"# c #D7DAD3",
"$ c #D8DBD5",
"% c #D9DCD6",
"& c #DADDD6",
"* c #DBDDD8",
"= c #DBDED8",
"- c #DCDED9",
"; c #DCDFD9",
": c #DDDFDA",
"> c #DDE0DA",
", c #DDE0DB",
"< c #DEE0DB",
"1 c #DFE1DC",
"2 c #DFE1DD",
"3 c #E0E2DD",
"4 c #E0E2DE",
"5 c #E1E3DE",
"6 c #E1E3DF",
"7 c #E2E4DF",
"8 c #E3E4E0",
"9 c #E3E5E0",
"0 c #E3E5E1",
"q c #E4E5E1",
"w c #E4E6E2",
"e c #E5E6E3",
"r c #E6E7E4",
"t c #E6E8E4",
"y c #E7E8E5",
"u c #E7E9E5",
"i c #E8E9E6",
"p c #E8EAE7",
"a c #E9EAE7",
"s c #EAEBE8",
"d c #EAECE9",
"f c #EBECE9",
"g c #ECEDEB",
"h c #EDEEEC",
"j c #EFEFEE",
"k c #EFF0EE",
"l c #F1F2F1",
"z c gray98",
"x c #FBFBFA",
"c c #FBFCFB",
"v c gray99",
"b c #FCFDFC",
"n c #FDFDFD",
"m c #FFFFFF",
/* pixels */
"                      ",
"                      ",
"                      ",
"                      ",
"                      ",
"     .oooooooooooo    ",
"     ozmmmmmmmmmmo    ",
"     oz866666666mo    ",
"     ozw66666666mo    ",
"     ozw66666666mo    ",
"     oztwwwww888mo    ",
"     oc6,;=&&$@@mo    ",
"     om8611,,;;=mo    ",
"     omitrww8766mo    ",
"     omkgdsitrw8mo    ",
"     omlhhgdiitwmo    ",
"     ommmmmmmmmmmo    ",
"     +ooooooooooo+    ",
"                      ",
"                      ",
"                      ",
"                      "
};
