/* XPM */
static char *media_record_png[] = {
/* columns rows colors chars-per-pixel */
"22 22 150 2 ",
"   c None",
".  c #BF0101",
"X  c #BF0808",
"o  c #C00101",
"O  c #C70101",
"+  c #C10606",
"@  c #C90101",
"#  c #CB0202",
"$  c #CA0303",
"%  c #CC0000",
"&  c #CC0101",
"*  c #CD0303",
"=  c #CD0404",
"-  c #CE0505",
";  c #CD0606",
":  c #CE0707",
">  c #CF0707",
",  c #CD0808",
"<  c #CF0909",
"1  c #CF0A0A",
"2  c #CD0C0C",
"3  c #D00707",
"4  c #D10E0E",
"5  c #D11010",
"6  c #D11A1A",
"7  c #D31B1B",
"8  c #D61919",
"9  c #D11E1E",
"0  c #D61D1D",
"q  c #E11A1A",
"w  c #E21A1A",
"e  c #E31B1B",
"r  c #E31E1E",
"t  c #E41C1C",
"y  c #E51D1D",
"u  c #E51E1E",
"i  c #E41F1F",
"p  c #E61E1E",
"a  c #E61F1F",
"s  c #E71F1F",
"d  c #DB2525",
"f  c #DC2525",
"g  c #DB2929",
"h  c #DD2B2B",
"j  c #DE2B2B",
"k  c #DC3434",
"l  c #DC3C3C",
"z  c #E72020",
"x  c #E62121",
"c  c #E82121",
"v  c #E92121",
"b  c #E92222",
"n  c #EA2323",
"m  c #E82424",
"M  c #EA2424",
"N  c #EB2424",
"B  c #EB2525",
"V  c #EC2525",
"C  c #EC2626",
"Z  c #EE2727",
"A  c #E82929",
"S  c #EA2B2B",
"D  c #E63030",
"F  c #E43333",
"G  c #E93636",
"H  c #E43D3D",
"J  c #E53D3D",
"K  c #E73F3F",
"L  c #EC3A3A",
"P  c #ED3B3B",
"I  c #E93E3E",
"U  c #E14646",
"Y  c #EB4141",
"T  c #ED4343",
"R  c #E84444",
"E  c #E94444",
"W  c #E94646",
"Q  c #E94747",
"!  c #E34C4C",
"~  c #F04747",
"^  c #E95151",
"/  c #E95555",
"(  c #E85656",
")  c #E95656",
"_  c #EC5757",
"`  c #EE5656",
"'  c #EA5858",
"]  c #EB5959",
"[  c #EA5A5A",
"{  c #EC5858",
"}  c #EA5C5C",
"|  c #E95E5E",
" . c #EA5F5F",
".. c #EB5F5F",
"X. c #F15353",
"o. c #F25454",
"O. c #EA6060",
"+. c #EB6060",
"@. c #EB6161",
"#. c #EB6363",
"$. c #EB6666",
"%. c #EB6767",
"&. c #EA6868",
"*. c #EB6868",
"=. c #EA6969",
"-. c #EB6969",
";. c #EB6A6A",
":. c #EA6B6B",
">. c #EB6D6D",
",. c #EB6F6F",
"<. c #EC6D6D",
"1. c #F16262",
"2. c #F16464",
"3. c #F26565",
"4. c #F36666",
"5. c #F46767",
"6. c #F36B6B",
"7. c #EB7070",
"8. c #EB7171",
"9. c #ED7474",
"0. c #EC7575",
"q. c #EC7B7B",
"w. c #EE7C7C",
"e. c #F37070",
"r. c #F57070",
"t. c #F57171",
"y. c #F57272",
"u. c #F47575",
"i. c #F67474",
"p. c #F67575",
"a. c #F57777",
"s. c #F67979",
"d. c #F67B7B",
"f. c #F07F7F",
"g. c #EE8282",
"h. c #EF8686",
"j. c #F08181",
"k. c #F18282",
"l. c #F18D8D",
"z. c #F49292",
"x. c #F69292",
"c. c #F29494",
"v. c #F69595",
"b. c #F59A9A",
"n. c #F69D9D",
"m. c #F69E9E",
"M. c #F89B9B",
"N. c #F8A8A8",
"B. c #F9ADAD",
"V. c #FAB1B1",
/* pixels */
"                                            ",
"                                            ",
"                                            ",
"                  . @ % @ o                 ",
"              O k f.n.V.n.k.l O             ",
"            , 9.B.c.h.q.g.l.N.w.,           ",
"          @ k.b.9.7.7.>.>.=.=.z.k.@         ",
"        + ! n.=.=.=.=.$.$.O.O.| v.U X       ",
"        % z.<.| O.O.O.O.| | ] / ^ i.@       ",
"        5 M./ / ] ] ] { _ W D r w i.,       ",
"        g e.D J W W I G m p p p w 2.d       ",
"        0 6.w p p z c c c c z p p 6.0       ",
"        = d.p p p c c m m c c p z d.%       ",
"        = 2.Y p c c m C C m c z T 1.=       ",
"          8 i.S c c C C C C c S i.8         ",
"          2 J y.P c m C C m P y.J 2         ",
"            = d y.2.X.~ o.5.y.f =           ",
"              9 3 h W _ W h 3 9             ",
"                    6 4 6                   ",
"                                            ",
"                                            ",
"                                            "
};
