/* XPM */
static char *process_stop_png[] = {
/* columns rows colors chars-per-pixel */
"22 22 251 2 ",
"   c None",
".  c #560000",
"X  c #5E0000",
"o  c #6E0000",
"O  c #740000",
"+  c #820000",
"@  c #830000",
"#  c #840000",
"$  c #860000",
"%  c #880000",
"&  c #890000",
"*  c #890404",
"=  c #880505",
"-  c #890707",
";  c #8C0707",
":  c #890808",
">  c #8A0909",
",  c #990D0D",
"<  c #9B0F0F",
"1  c #9C1010",
"2  c #9D1212",
"3  c #9F1414",
"4  c #A20F0F",
"5  c #A80F0F",
"6  c #B50000",
"7  c #B30606",
"8  c #B50606",
"9  c #B90000",
"0  c #BA0000",
"q  c #BB0000",
"w  c #BD0000",
"e  c #BE0000",
"r  c #BF0000",
"t  c #BB0404",
"y  c #BD0404",
"u  c #BF0404",
"i  c #AC1111",
"p  c #BF1616",
"a  c #BA1C1C",
"s  c #BA1D1D",
"d  c #A92A2A",
"f  c #A92B2B",
"g  c #AB2B2B",
"h  c #AC2A2A",
"j  c #AC2E2E",
"k  c #B72828",
"l  c #BB2929",
"z  c #BE2E2E",
"x  c #AF3232",
"c  c #AF3535",
"v  c #B63535",
"b  c #BF3030",
"n  c #B03939",
"m  c #B03B3B",
"M  c #B13E3E",
"N  c #C00000",
"B  c #C10000",
"V  c #C20000",
"C  c #C30000",
"Z  c #C50000",
"A  c #C60000",
"S  c #C00505",
"D  c #C20505",
"F  c #C30505",
"G  c #C80000",
"H  c #CB0000",
"J  c #CB0B0B",
"K  c #CF1010",
"L  c #CB1616",
"P  c #C21D1D",
"I  c #C31F1F",
"U  c #D11D1D",
"Y  c #D31E1E",
"T  c #D51F1F",
"R  c #C52020",
"E  c #C62020",
"W  c #C82424",
"Q  c #C82727",
"!  c #C72929",
"~  c #CA2C2C",
"^  c #D82020",
"/  c #D92A2A",
"(  c #CB3333",
")  c #CD3131",
"_  c #CC3434",
"`  c #CE3535",
"'  c #CD3636",
"]  c #CF3737",
"[  c #CB3B3B",
"{  c #CF3838",
"}  c #C83C3C",
"|  c #D03838",
" . c #D13939",
".. c #D13A3A",
"X. c #D13B3B",
"o. c #D23B3B",
"O. c #D23C3C",
"+. c #D23D3D",
"@. c #D13F3F",
"#. c #D43C3C",
"$. c #D73F3F",
"%. c #D83D3D",
"&. c #D83E3E",
"*. c #D83F3F",
"=. c #BB4444",
"-. c #BD4444",
";. c #BD4747",
":. c #C14343",
">. c #C54242",
",. c #C54343",
"<. c #C04545",
"1. c #C14747",
"2. c #C24646",
"3. c #C44444",
"4. c #CC4545",
"5. c #CD4646",
"6. c #C54949",
"7. c #C44B4B",
"8. c #CC4848",
"9. c #CD4949",
"0. c #CE4C4C",
"q. c #CD4E4E",
"w. c #CC4F4F",
"e. c #D94141",
"r. c #D94242",
"t. c #D94343",
"y. c #D94444",
"u. c #D94545",
"i. c #DA4646",
"p. c #DA4747",
"a. c #D44F4F",
"s. c #DA4848",
"d. c #DA4949",
"f. c #DA4A4A",
"g. c #DB4B4B",
"h. c #DA4C4C",
"j. c #DB4C4C",
"k. c #DB4D4D",
"l. c #DB4F4F",
"z. c #DD4F4F",
"x. c #C05151",
"c. c #C15353",
"v. c #C05454",
"b. c #C15555",
"n. c #C25555",
"m. c #C05757",
"M. c #C25757",
"N. c #C55656",
"B. c #CC5151",
"V. c #CE5252",
"C. c #C35C5C",
"Z. c #C55D5D",
"A. c #C45F5F",
"S. c #C55F5F",
"D. c #C95959",
"F. c #CB5B5B",
"G. c #CE5F5F",
"H. c #D05555",
"J. c #DA5050",
"K. c #DB5353",
"L. c #DC5050",
"P. c #DC5151",
"I. c #DC5252",
"U. c #DF5252",
"Y. c #E44545",
"T. c #E94B4B",
"R. c #EA4D4D",
"E. c #E45353",
"W. c #E15555",
"Q. c #E15757",
"!. c #E45454",
"~. c #EA5252",
"^. c #E95656",
"/. c #EB5656",
"(. c #E65858",
"). c #E75B5B",
"_. c #E95A5A",
"`. c #E85D5D",
"'. c #E85F5F",
"]. c #ED5D5D",
"[. c #C56262",
"{. c #C56363",
"}. c #C66262",
"|. c #C66363",
" X c #C76464",
".X c #C66767",
"XX c #C86666",
"oX c #CC7676",
"OX c #CC7B7B",
"+X c #CB7C7C",
"@X c #E36161",
"#X c #E56262",
"$X c #E36464",
"%X c #EA6262",
"&X c #ED6666",
"*X c #EF6666",
"=X c #E46868",
"-X c #E56A6A",
";X c #EF6969",
":X c #EC6A6A",
">X c #ED6C6C",
",X c #EF6C6C",
"<X c #EC6F6F",
"1X c #EA7272",
"2X c #EF7676",
"3X c #F17B7B",
"4X c #CF8888",
"5X c #D59595",
"6X c #F28181",
"7X c #F28888",
"8X c #F48989",
"9X c #F58C8C",
"0X c #F58D8D",
"qX c #F58E8E",
"wX c #F48F8F",
"eX c #F58F8F",
"rX c #F69090",
"tX c #F49393",
"yX c #F69292",
"uX c #F49494",
"iX c #F49595",
"pX c #F69696",
"aX c #F79898",
"sX c #F79999",
"dX c #F79A9A",
"fX c #F79B9B",
"gX c #D9A2A2",
"hX c #E4BCBC",
"jX c #DDD3D3",
"kX c #DED4D4",
"lX c #DFD5D5",
"zX c #E5D5D5",
"xX c #E5D6D6",
"cX c #E6D6D6",
"vX c #E2D8D8",
"bX c #E6D8D8",
"nX c #E6D9D9",
"mX c #E8DFDF",
"MX c #E6E2E2",
"NX c #EAE2E2",
"BX c #EBE3E3",
"VX c #EEE3E3",
"CX c #E9E4E4",
"ZX c gray92",
"AX c #EDECEC",
"SX c #EEEEEE",
"DX c #F1E3E3",
"FX c #F0E4E4",
"GX c #F5E6E6",
"HX c #F6EAEA",
"JX c #F0EEEE",
/* pixels */
"                                            ",
"            % % % % % % % % % %             ",
"          % M iXfXfXfXfXiXtX7Xh %           ",
"        % n iX=Xj.j.g.g.i.t.Q.6Xd %         ",
"      % n iX=XI.I.j.j.g.i.i.t.Q.3Xj %       ",
"    % c iX=XJ.D.H.I.j.g.i.5.6.$.I.2Xd %     ",
"  % x tX$XJ.D.+X{.V.j.g.9.n.OX2.$.z.>Xd %   ",
"  * wX@Xj.a.n.jXjXA.0.0.n.bXNX;.[ X.j.;X:   ",
"  ; tXg.g.j.V.{.kXkXC.n.bXNXA.>.X.X.' >X:   ",
"  ; wXi.g.g.g.0.A.vXMXCXNXA.>.O.X.' ' ;X*   ",
"  ; wXi.i.i.g.g.6.4XZXAX5X:.O.X.{ ' ( *X*   ",
"  ; wXt.t.i.i.9.c.xXAXJXVX{.G.) ~ W ! >X*   ",
"  ; wX&.t.t.5.c.xXNXoX{.FXDX=.z e e q R.#   ",
"  ; 8X&.&.O.n.xXmX X3.8  XHXGXv 6 q p _.#   ",
"  * *X/ K J 2.gXn.a Z N a XXhX;.q q P 1X#   ",
"    3 ].^ H L 2.b Z N N N 7 N.} q P E.l %   ",
"      2 /.T H Z Z N N N e e q q E !.k %     ",
"        2 ~.Y Z N N N e e q q E !.i %       ",
"          , T.Y S S S u u t W !.5 %         ",
"          o , Y./.%X`.`.).).#X4 O           ",
"            . # # @ @ @ @ @ # X             ",
"                                            "
};
